<svg xmlns="http://www.w3.org/2000/svg" preserveAspectRatio="xMaxYMin meet" viewBox="-650 0 720 720">
    <path fill-opacity="0.75" fill="#FFF" d="M31.878 19.595L26.155 34.94l-5.723-15.344H15.76l8.059 21.602h4.672l8.059-21.602-4.672-.001zM7.851 41.638c-3.368 0-6.202-1.769-7.851-4.124l3.412-2.468c1.322 1.624 2.853 2.519 4.313 2.519 1.75 0 3.223-.895 3.223-2.412 0-1.586-1.801-2.317-2.827-2.752-.882-.378-1.316-.561-2.311-.989-3.078-1.316-4.647-3.381-4.647-6.088 0-3.929 3.23-6.139 6.674-6.139 2.651 0 5.125 1.246 6.492 3.261l-3.236 2.349c-.983-1.038-1.996-1.542-3.116-1.542-1.316 0-2.487.737-2.487 2.097 0 1.013.844 1.864 2.575 2.594.346.145 2.153.951 2.588 1.152 3.129 1.435 4.653 3.4 4.653 5.994.006 3.961-3.267 6.548-7.455 6.548zm38.193.019c-2.588 0-5.591-1.391-6.87-4.918-.435-1.202-.422-2.128-.422-3.104V13.343h4.357v6.252h6.693l-1.586 4.256H43.11v9.79c.006.68.038 1.505.334 2.128.498 1.038 1.517 1.725 2.594 1.725.769 0 1.612-.321 2.279-.863l2.727 3.11a7.529 7.529 0 0 1-5 1.916z"/>
</svg>
